<mxfile host="Electron" modified="2025-04-15T09:29:36.829Z" agent="Mozilla/5.0 (Windows NT 10.0; Win64; x64) AppleWebKit/537.36 (KHTML, like Gecko) draw.io/24.1.0 Chrome/120.0.6099.109 Electron/28.1.0 Safari/537.36" etag="q79GPFYCqlyinLsPkdmt" version="24.1.0" type="device">
  <diagram name="第 1 页" id="1fQTGUDg1MmvKGDz8zUx">
    <mxGraphModel dx="1434" dy="836" grid="1" gridSize="10" guides="1" tooltips="1" connect="1" arrows="1" fold="1" page="1" pageScale="1" pageWidth="1200" pageHeight="1920" math="0" shadow="0">
      <root>
        <mxCell id="0" />
        <mxCell id="1" parent="0" />
        <mxCell id="cPjp1gmhZrPlrb3KGz8X-11" value="" style="rounded=1;whiteSpace=wrap;html=1;" vertex="1" parent="1">
          <mxGeometry x="250" y="1540" width="440" height="370" as="geometry" />
        </mxCell>
        <mxCell id="fFmPcU3MdrjsZ3k4qK_m-92" value="" style="rounded=0;whiteSpace=wrap;html=1;fillColor=#d5e8d4;strokeColor=#82b366;" parent="1" vertex="1">
          <mxGeometry x="175" y="970" width="775" height="430" as="geometry" />
        </mxCell>
        <mxCell id="fFmPcU3MdrjsZ3k4qK_m-1" value="" style="rounded=1;whiteSpace=wrap;html=1;fillColor=#d5e8d4;strokeColor=#82b366;" parent="1" vertex="1">
          <mxGeometry x="275" y="330" width="100" height="280" as="geometry" />
        </mxCell>
        <mxCell id="fFmPcU3MdrjsZ3k4qK_m-3" value="&lt;b&gt;Connetion&lt;/b&gt;" style="text;html=1;align=center;verticalAlign=middle;whiteSpace=wrap;rounded=0;" parent="1" vertex="1">
          <mxGeometry x="295" y="340" width="60" height="30" as="geometry" />
        </mxCell>
        <mxCell id="fFmPcU3MdrjsZ3k4qK_m-4" value="Producer" style="rounded=0;whiteSpace=wrap;html=1;fillColor=#f5f5f5;fontColor=#333333;strokeColor=#666666;" parent="1" vertex="1">
          <mxGeometry x="125" y="400" width="80" height="40" as="geometry" />
        </mxCell>
        <mxCell id="fFmPcU3MdrjsZ3k4qK_m-5" value="" style="rounded=1;whiteSpace=wrap;html=1;fillColor=#dae8fc;strokeColor=#6c8ebf;" parent="1" vertex="1">
          <mxGeometry x="285" y="390" width="80" height="30" as="geometry" />
        </mxCell>
        <mxCell id="fFmPcU3MdrjsZ3k4qK_m-6" value="Channel" style="text;html=1;align=center;verticalAlign=middle;whiteSpace=wrap;rounded=0;" parent="1" vertex="1">
          <mxGeometry x="285" y="385" width="80" height="40" as="geometry" />
        </mxCell>
        <mxCell id="fFmPcU3MdrjsZ3k4qK_m-9" value="" style="rounded=1;whiteSpace=wrap;html=1;fillColor=#dae8fc;strokeColor=#6c8ebf;" parent="1" vertex="1">
          <mxGeometry x="285" y="530" width="80" height="30" as="geometry" />
        </mxCell>
        <mxCell id="fFmPcU3MdrjsZ3k4qK_m-10" value="" style="rounded=1;whiteSpace=wrap;html=1;fillColor=#dae8fc;strokeColor=#6c8ebf;" parent="1" vertex="1">
          <mxGeometry x="285" y="455" width="80" height="30" as="geometry" />
        </mxCell>
        <mxCell id="fFmPcU3MdrjsZ3k4qK_m-11" value="Producer" style="rounded=0;whiteSpace=wrap;html=1;fillColor=#f5f5f5;fontColor=#333333;strokeColor=#666666;" parent="1" vertex="1">
          <mxGeometry x="125" y="510" width="80" height="40" as="geometry" />
        </mxCell>
        <mxCell id="fFmPcU3MdrjsZ3k4qK_m-14" value="" style="endArrow=classic;html=1;rounded=0;" parent="1" edge="1">
          <mxGeometry width="50" height="50" relative="1" as="geometry">
            <mxPoint x="205" y="420" as="sourcePoint" />
            <mxPoint x="275" y="420" as="targetPoint" />
          </mxGeometry>
        </mxCell>
        <mxCell id="fFmPcU3MdrjsZ3k4qK_m-15" value="" style="endArrow=classic;html=1;rounded=0;" parent="1" edge="1">
          <mxGeometry width="50" height="50" relative="1" as="geometry">
            <mxPoint x="205" y="530" as="sourcePoint" />
            <mxPoint x="275" y="530" as="targetPoint" />
          </mxGeometry>
        </mxCell>
        <mxCell id="fFmPcU3MdrjsZ3k4qK_m-16" value="Channel" style="text;html=1;align=center;verticalAlign=middle;whiteSpace=wrap;rounded=0;" parent="1" vertex="1">
          <mxGeometry x="285" y="450" width="80" height="40" as="geometry" />
        </mxCell>
        <mxCell id="fFmPcU3MdrjsZ3k4qK_m-17" value="Channel" style="text;html=1;align=center;verticalAlign=middle;whiteSpace=wrap;rounded=0;" parent="1" vertex="1">
          <mxGeometry x="285" y="525" width="80" height="40" as="geometry" />
        </mxCell>
        <mxCell id="fFmPcU3MdrjsZ3k4qK_m-18" value="" style="rounded=1;whiteSpace=wrap;html=1;fillColor=#f8cecc;strokeColor=#b85450;" parent="1" vertex="1">
          <mxGeometry x="455" y="290" width="290" height="340" as="geometry" />
        </mxCell>
        <mxCell id="fFmPcU3MdrjsZ3k4qK_m-19" value="" style="rounded=1;whiteSpace=wrap;html=1;fillColor=#dae8fc;strokeColor=#6c8ebf;" parent="1" vertex="1">
          <mxGeometry x="465" y="375" width="100" height="45" as="geometry" />
        </mxCell>
        <mxCell id="fFmPcU3MdrjsZ3k4qK_m-20" value="queue" style="rounded=1;whiteSpace=wrap;html=1;fillColor=#dae8fc;strokeColor=#6c8ebf;" parent="1" vertex="1">
          <mxGeometry x="605" y="330" width="120" height="30" as="geometry" />
        </mxCell>
        <mxCell id="fFmPcU3MdrjsZ3k4qK_m-21" value="queue" style="rounded=1;whiteSpace=wrap;html=1;fillColor=#dae8fc;strokeColor=#6c8ebf;" parent="1" vertex="1">
          <mxGeometry x="605" y="425" width="120" height="30" as="geometry" />
        </mxCell>
        <mxCell id="fFmPcU3MdrjsZ3k4qK_m-25" value="" style="endArrow=classic;html=1;rounded=0;entryX=0;entryY=0.75;entryDx=0;entryDy=0;exitX=1;exitY=0.5;exitDx=0;exitDy=0;" parent="1" source="fFmPcU3MdrjsZ3k4qK_m-19" edge="1">
          <mxGeometry width="50" height="50" relative="1" as="geometry">
            <mxPoint x="564" y="375" as="sourcePoint" />
            <mxPoint x="604" y="347.5" as="targetPoint" />
          </mxGeometry>
        </mxCell>
        <mxCell id="fFmPcU3MdrjsZ3k4qK_m-26" value="" style="endArrow=classic;html=1;rounded=0;entryX=0;entryY=0.5;entryDx=0;entryDy=0;exitX=1;exitY=0.5;exitDx=0;exitDy=0;" parent="1" source="fFmPcU3MdrjsZ3k4qK_m-19" target="fFmPcU3MdrjsZ3k4qK_m-21" edge="1">
          <mxGeometry width="50" height="50" relative="1" as="geometry">
            <mxPoint x="575" y="408" as="sourcePoint" />
            <mxPoint x="614" y="357.5" as="targetPoint" />
          </mxGeometry>
        </mxCell>
        <mxCell id="fFmPcU3MdrjsZ3k4qK_m-27" value="Exchange" style="text;html=1;align=center;verticalAlign=middle;whiteSpace=wrap;rounded=0;" parent="1" vertex="1">
          <mxGeometry x="485" y="382.5" width="60" height="30" as="geometry" />
        </mxCell>
        <mxCell id="fFmPcU3MdrjsZ3k4qK_m-28" value="&lt;b&gt;Broker&lt;/b&gt;" style="text;html=1;align=center;verticalAlign=middle;whiteSpace=wrap;rounded=0;" parent="1" vertex="1">
          <mxGeometry x="570" y="290" width="60" height="30" as="geometry" />
        </mxCell>
        <mxCell id="fFmPcU3MdrjsZ3k4qK_m-29" value="" style="endArrow=classic;html=1;rounded=0;entryX=0;entryY=0.5;entryDx=0;entryDy=0;" parent="1" target="fFmPcU3MdrjsZ3k4qK_m-18" edge="1">
          <mxGeometry width="50" height="50" relative="1" as="geometry">
            <mxPoint x="375" y="459.5" as="sourcePoint" />
            <mxPoint x="445" y="459.5" as="targetPoint" />
          </mxGeometry>
        </mxCell>
        <mxCell id="fFmPcU3MdrjsZ3k4qK_m-30" value="queue" style="rounded=1;whiteSpace=wrap;html=1;fillColor=#dae8fc;strokeColor=#6c8ebf;" parent="1" vertex="1">
          <mxGeometry x="600" y="482.5" width="120" height="30" as="geometry" />
        </mxCell>
        <mxCell id="fFmPcU3MdrjsZ3k4qK_m-31" value="queue" style="rounded=1;whiteSpace=wrap;html=1;fillColor=#dae8fc;strokeColor=#6c8ebf;" parent="1" vertex="1">
          <mxGeometry x="600" y="577.5" width="120" height="30" as="geometry" />
        </mxCell>
        <mxCell id="fFmPcU3MdrjsZ3k4qK_m-32" value="" style="endArrow=classic;html=1;rounded=0;entryX=0;entryY=0.75;entryDx=0;entryDy=0;exitX=1;exitY=0.5;exitDx=0;exitDy=0;" parent="1" edge="1">
          <mxGeometry width="50" height="50" relative="1" as="geometry">
            <mxPoint x="560" y="550.5" as="sourcePoint" />
            <mxPoint x="599" y="500" as="targetPoint" />
          </mxGeometry>
        </mxCell>
        <mxCell id="fFmPcU3MdrjsZ3k4qK_m-33" value="" style="endArrow=classic;html=1;rounded=0;entryX=0;entryY=0.5;entryDx=0;entryDy=0;exitX=1;exitY=0.5;exitDx=0;exitDy=0;" parent="1" target="fFmPcU3MdrjsZ3k4qK_m-31" edge="1">
          <mxGeometry width="50" height="50" relative="1" as="geometry">
            <mxPoint x="560" y="550.5" as="sourcePoint" />
            <mxPoint x="609" y="510" as="targetPoint" />
          </mxGeometry>
        </mxCell>
        <mxCell id="fFmPcU3MdrjsZ3k4qK_m-35" value="" style="rounded=1;whiteSpace=wrap;html=1;fillColor=#dae8fc;strokeColor=#6c8ebf;" parent="1" vertex="1">
          <mxGeometry x="460" y="525" width="100" height="45" as="geometry" />
        </mxCell>
        <mxCell id="fFmPcU3MdrjsZ3k4qK_m-34" value="Exchange" style="text;html=1;align=center;verticalAlign=middle;whiteSpace=wrap;rounded=0;" parent="1" vertex="1">
          <mxGeometry x="480" y="535" width="60" height="30" as="geometry" />
        </mxCell>
        <mxCell id="fFmPcU3MdrjsZ3k4qK_m-36" value="" style="rounded=1;whiteSpace=wrap;html=1;fillColor=#d5e8d4;strokeColor=#82b366;" parent="1" vertex="1">
          <mxGeometry x="825" y="330" width="100" height="280" as="geometry" />
        </mxCell>
        <mxCell id="fFmPcU3MdrjsZ3k4qK_m-37" value="&lt;b&gt;Connetion&lt;/b&gt;" style="text;html=1;align=center;verticalAlign=middle;whiteSpace=wrap;rounded=0;" parent="1" vertex="1">
          <mxGeometry x="845" y="340" width="60" height="30" as="geometry" />
        </mxCell>
        <mxCell id="fFmPcU3MdrjsZ3k4qK_m-38" value="" style="rounded=1;whiteSpace=wrap;html=1;fillColor=#dae8fc;strokeColor=#6c8ebf;" parent="1" vertex="1">
          <mxGeometry x="835" y="390" width="80" height="30" as="geometry" />
        </mxCell>
        <mxCell id="fFmPcU3MdrjsZ3k4qK_m-39" value="Channel" style="text;html=1;align=center;verticalAlign=middle;whiteSpace=wrap;rounded=0;" parent="1" vertex="1">
          <mxGeometry x="835" y="385" width="80" height="40" as="geometry" />
        </mxCell>
        <mxCell id="fFmPcU3MdrjsZ3k4qK_m-40" value="" style="rounded=1;whiteSpace=wrap;html=1;fillColor=#dae8fc;strokeColor=#6c8ebf;" parent="1" vertex="1">
          <mxGeometry x="835" y="530" width="80" height="30" as="geometry" />
        </mxCell>
        <mxCell id="fFmPcU3MdrjsZ3k4qK_m-41" value="" style="rounded=1;whiteSpace=wrap;html=1;fillColor=#dae8fc;strokeColor=#6c8ebf;" parent="1" vertex="1">
          <mxGeometry x="835" y="455" width="80" height="30" as="geometry" />
        </mxCell>
        <mxCell id="fFmPcU3MdrjsZ3k4qK_m-42" value="Channel" style="text;html=1;align=center;verticalAlign=middle;whiteSpace=wrap;rounded=0;" parent="1" vertex="1">
          <mxGeometry x="835" y="450" width="80" height="40" as="geometry" />
        </mxCell>
        <mxCell id="fFmPcU3MdrjsZ3k4qK_m-43" value="Channel" style="text;html=1;align=center;verticalAlign=middle;whiteSpace=wrap;rounded=0;" parent="1" vertex="1">
          <mxGeometry x="835" y="525" width="80" height="40" as="geometry" />
        </mxCell>
        <mxCell id="fFmPcU3MdrjsZ3k4qK_m-44" value="" style="endArrow=classic;html=1;rounded=0;entryX=0;entryY=0.5;entryDx=0;entryDy=0;" parent="1" edge="1">
          <mxGeometry width="50" height="50" relative="1" as="geometry">
            <mxPoint x="745" y="459.5" as="sourcePoint" />
            <mxPoint x="825" y="460" as="targetPoint" />
          </mxGeometry>
        </mxCell>
        <mxCell id="fFmPcU3MdrjsZ3k4qK_m-45" value="Consumer" style="rounded=0;whiteSpace=wrap;html=1;fillColor=#f5f5f5;fontColor=#333333;strokeColor=#666666;" parent="1" vertex="1">
          <mxGeometry x="995" y="400" width="80" height="40" as="geometry" />
        </mxCell>
        <mxCell id="fFmPcU3MdrjsZ3k4qK_m-46" value="Consumer" style="rounded=0;whiteSpace=wrap;html=1;fillColor=#f5f5f5;fontColor=#333333;strokeColor=#666666;" parent="1" vertex="1">
          <mxGeometry x="995" y="510" width="80" height="40" as="geometry" />
        </mxCell>
        <mxCell id="fFmPcU3MdrjsZ3k4qK_m-47" value="" style="endArrow=classic;html=1;rounded=0;" parent="1" edge="1">
          <mxGeometry width="50" height="50" relative="1" as="geometry">
            <mxPoint x="925" y="420" as="sourcePoint" />
            <mxPoint x="995" y="420" as="targetPoint" />
          </mxGeometry>
        </mxCell>
        <mxCell id="fFmPcU3MdrjsZ3k4qK_m-48" value="" style="endArrow=classic;html=1;rounded=0;" parent="1" edge="1">
          <mxGeometry width="50" height="50" relative="1" as="geometry">
            <mxPoint x="925" y="529" as="sourcePoint" />
            <mxPoint x="995" y="529" as="targetPoint" />
          </mxGeometry>
        </mxCell>
        <mxCell id="fFmPcU3MdrjsZ3k4qK_m-49" value="&lt;i&gt;Message&lt;/i&gt;" style="text;html=1;align=center;verticalAlign=middle;whiteSpace=wrap;rounded=0;" parent="1" vertex="1">
          <mxGeometry x="205" y="505" width="60" height="30" as="geometry" />
        </mxCell>
        <mxCell id="fFmPcU3MdrjsZ3k4qK_m-50" value="&lt;i&gt;Message&lt;/i&gt;" style="text;html=1;align=center;verticalAlign=middle;whiteSpace=wrap;rounded=0;" parent="1" vertex="1">
          <mxGeometry x="205" y="395" width="60" height="30" as="geometry" />
        </mxCell>
        <mxCell id="fFmPcU3MdrjsZ3k4qK_m-51" value="&lt;i&gt;Message&lt;/i&gt;" style="text;html=1;align=center;verticalAlign=middle;whiteSpace=wrap;rounded=0;" parent="1" vertex="1">
          <mxGeometry x="925" y="395" width="60" height="30" as="geometry" />
        </mxCell>
        <mxCell id="fFmPcU3MdrjsZ3k4qK_m-52" value="&lt;i&gt;Message&lt;/i&gt;" style="text;html=1;align=center;verticalAlign=middle;whiteSpace=wrap;rounded=0;" parent="1" vertex="1">
          <mxGeometry x="925" y="500" width="60" height="30" as="geometry" />
        </mxCell>
        <mxCell id="fFmPcU3MdrjsZ3k4qK_m-53" value="&lt;div&gt;Message&lt;/div&gt;" style="ellipse;whiteSpace=wrap;html=1;aspect=fixed;fillColor=#fff2cc;strokeColor=#d6b656;" parent="1" vertex="1">
          <mxGeometry x="160" y="740" width="80" height="80" as="geometry" />
        </mxCell>
        <mxCell id="fFmPcU3MdrjsZ3k4qK_m-54" value="" style="endArrow=classic;html=1;rounded=0;" parent="1" edge="1">
          <mxGeometry width="50" height="50" relative="1" as="geometry">
            <mxPoint x="240" y="779.5" as="sourcePoint" />
            <mxPoint x="330" y="779.5" as="targetPoint" />
          </mxGeometry>
        </mxCell>
        <mxCell id="fFmPcU3MdrjsZ3k4qK_m-55" value="&lt;div class=&quot;lake-content&quot;&gt;&lt;span class=&quot;ne-text&quot;&gt;Routing Key&lt;/span&gt;&lt;/div&gt;" style="text;html=1;align=center;verticalAlign=middle;whiteSpace=wrap;rounded=0;" parent="1" vertex="1">
          <mxGeometry x="240" y="750" width="90" height="30" as="geometry" />
        </mxCell>
        <mxCell id="fFmPcU3MdrjsZ3k4qK_m-56" value="&lt;div&gt;Exchange&lt;/div&gt;" style="ellipse;whiteSpace=wrap;html=1;aspect=fixed;fillColor=#f8cecc;strokeColor=#b85450;" parent="1" vertex="1">
          <mxGeometry x="330" y="740" width="80" height="80" as="geometry" />
        </mxCell>
        <mxCell id="fFmPcU3MdrjsZ3k4qK_m-57" value="queue" style="rounded=1;whiteSpace=wrap;html=1;fillColor=#dae8fc;strokeColor=#6c8ebf;" parent="1" vertex="1">
          <mxGeometry x="500" y="730" width="120" height="30" as="geometry" />
        </mxCell>
        <mxCell id="fFmPcU3MdrjsZ3k4qK_m-58" value="queue" style="rounded=1;whiteSpace=wrap;html=1;fillColor=#dae8fc;strokeColor=#6c8ebf;" parent="1" vertex="1">
          <mxGeometry x="500" y="810" width="120" height="30" as="geometry" />
        </mxCell>
        <mxCell id="fFmPcU3MdrjsZ3k4qK_m-59" value="" style="endArrow=classic;html=1;rounded=0;entryX=0;entryY=0.5;entryDx=0;entryDy=0;" parent="1" target="fFmPcU3MdrjsZ3k4qK_m-57" edge="1">
          <mxGeometry width="50" height="50" relative="1" as="geometry">
            <mxPoint x="410" y="780" as="sourcePoint" />
            <mxPoint x="460" y="730" as="targetPoint" />
          </mxGeometry>
        </mxCell>
        <mxCell id="fFmPcU3MdrjsZ3k4qK_m-60" value="" style="endArrow=classic;html=1;rounded=0;entryX=0;entryY=0.5;entryDx=0;entryDy=0;exitX=1;exitY=0.5;exitDx=0;exitDy=0;" parent="1" source="fFmPcU3MdrjsZ3k4qK_m-56" target="fFmPcU3MdrjsZ3k4qK_m-58" edge="1">
          <mxGeometry width="50" height="50" relative="1" as="geometry">
            <mxPoint x="420" y="790" as="sourcePoint" />
            <mxPoint x="510" y="755" as="targetPoint" />
          </mxGeometry>
        </mxCell>
        <mxCell id="fFmPcU3MdrjsZ3k4qK_m-61" value="Binding Key1" style="text;html=1;align=center;verticalAlign=middle;whiteSpace=wrap;rounded=0;rotation=340;" parent="1" vertex="1">
          <mxGeometry x="365" y="730" width="170" height="30" as="geometry" />
        </mxCell>
        <mxCell id="fFmPcU3MdrjsZ3k4qK_m-62" value="Binding Key2" style="text;html=1;align=center;verticalAlign=middle;whiteSpace=wrap;rounded=0;rotation=30;" parent="1" vertex="1">
          <mxGeometry x="365" y="800" width="170" height="30" as="geometry" />
        </mxCell>
        <mxCell id="fFmPcU3MdrjsZ3k4qK_m-64" value="" style="rounded=1;whiteSpace=wrap;html=1;fillColor=#f8cecc;strokeColor=#b85450;" parent="1" vertex="1">
          <mxGeometry x="250" y="1020" width="290" height="340" as="geometry" />
        </mxCell>
        <mxCell id="fFmPcU3MdrjsZ3k4qK_m-65" value="" style="rounded=1;whiteSpace=wrap;html=1;fillColor=#dae8fc;strokeColor=#6c8ebf;" parent="1" vertex="1">
          <mxGeometry x="260" y="1105" width="100" height="45" as="geometry" />
        </mxCell>
        <mxCell id="fFmPcU3MdrjsZ3k4qK_m-66" value="queue" style="rounded=1;whiteSpace=wrap;html=1;fillColor=#dae8fc;strokeColor=#6c8ebf;" parent="1" vertex="1">
          <mxGeometry x="400" y="1060" width="120" height="30" as="geometry" />
        </mxCell>
        <mxCell id="fFmPcU3MdrjsZ3k4qK_m-67" value="queue" style="rounded=1;whiteSpace=wrap;html=1;fillColor=#dae8fc;strokeColor=#6c8ebf;" parent="1" vertex="1">
          <mxGeometry x="400" y="1155" width="120" height="30" as="geometry" />
        </mxCell>
        <mxCell id="fFmPcU3MdrjsZ3k4qK_m-68" value="" style="endArrow=classic;html=1;rounded=0;entryX=0;entryY=0.75;entryDx=0;entryDy=0;exitX=1;exitY=0.5;exitDx=0;exitDy=0;" parent="1" source="fFmPcU3MdrjsZ3k4qK_m-65" edge="1">
          <mxGeometry width="50" height="50" relative="1" as="geometry">
            <mxPoint x="359" y="1105" as="sourcePoint" />
            <mxPoint x="399" y="1077.5" as="targetPoint" />
          </mxGeometry>
        </mxCell>
        <mxCell id="fFmPcU3MdrjsZ3k4qK_m-69" value="" style="endArrow=classic;html=1;rounded=0;entryX=0;entryY=0.5;entryDx=0;entryDy=0;exitX=1;exitY=0.5;exitDx=0;exitDy=0;" parent="1" source="fFmPcU3MdrjsZ3k4qK_m-65" target="fFmPcU3MdrjsZ3k4qK_m-67" edge="1">
          <mxGeometry width="50" height="50" relative="1" as="geometry">
            <mxPoint x="370" y="1138" as="sourcePoint" />
            <mxPoint x="409" y="1087.5" as="targetPoint" />
          </mxGeometry>
        </mxCell>
        <mxCell id="fFmPcU3MdrjsZ3k4qK_m-70" value="Exchange" style="text;html=1;align=center;verticalAlign=middle;whiteSpace=wrap;rounded=0;" parent="1" vertex="1">
          <mxGeometry x="280" y="1112.5" width="60" height="30" as="geometry" />
        </mxCell>
        <mxCell id="fFmPcU3MdrjsZ3k4qK_m-71" value="&lt;div class=&quot;lake-content&quot;&gt;&lt;span style=&quot;font-size: 16px;&quot; class=&quot;ne-text&quot;&gt;vhost&lt;/span&gt;&lt;/div&gt;" style="text;html=1;align=center;verticalAlign=middle;whiteSpace=wrap;rounded=0;" parent="1" vertex="1">
          <mxGeometry x="365" y="1020" width="60" height="30" as="geometry" />
        </mxCell>
        <mxCell id="fFmPcU3MdrjsZ3k4qK_m-72" value="queue" style="rounded=1;whiteSpace=wrap;html=1;fillColor=#dae8fc;strokeColor=#6c8ebf;" parent="1" vertex="1">
          <mxGeometry x="395" y="1212.5" width="120" height="30" as="geometry" />
        </mxCell>
        <mxCell id="fFmPcU3MdrjsZ3k4qK_m-73" value="queue" style="rounded=1;whiteSpace=wrap;html=1;fillColor=#dae8fc;strokeColor=#6c8ebf;" parent="1" vertex="1">
          <mxGeometry x="395" y="1307.5" width="120" height="30" as="geometry" />
        </mxCell>
        <mxCell id="fFmPcU3MdrjsZ3k4qK_m-74" value="" style="endArrow=classic;html=1;rounded=0;entryX=0;entryY=0.75;entryDx=0;entryDy=0;exitX=1;exitY=0.5;exitDx=0;exitDy=0;" parent="1" edge="1">
          <mxGeometry width="50" height="50" relative="1" as="geometry">
            <mxPoint x="355" y="1280.5" as="sourcePoint" />
            <mxPoint x="394" y="1230" as="targetPoint" />
          </mxGeometry>
        </mxCell>
        <mxCell id="fFmPcU3MdrjsZ3k4qK_m-75" value="" style="endArrow=classic;html=1;rounded=0;entryX=0;entryY=0.5;entryDx=0;entryDy=0;exitX=1;exitY=0.5;exitDx=0;exitDy=0;" parent="1" target="fFmPcU3MdrjsZ3k4qK_m-73" edge="1">
          <mxGeometry width="50" height="50" relative="1" as="geometry">
            <mxPoint x="355" y="1280.5" as="sourcePoint" />
            <mxPoint x="404" y="1240" as="targetPoint" />
          </mxGeometry>
        </mxCell>
        <mxCell id="fFmPcU3MdrjsZ3k4qK_m-76" value="" style="rounded=1;whiteSpace=wrap;html=1;fillColor=#dae8fc;strokeColor=#6c8ebf;" parent="1" vertex="1">
          <mxGeometry x="255" y="1255" width="100" height="45" as="geometry" />
        </mxCell>
        <mxCell id="fFmPcU3MdrjsZ3k4qK_m-77" value="Exchange" style="text;html=1;align=center;verticalAlign=middle;whiteSpace=wrap;rounded=0;" parent="1" vertex="1">
          <mxGeometry x="275" y="1265" width="60" height="30" as="geometry" />
        </mxCell>
        <mxCell id="fFmPcU3MdrjsZ3k4qK_m-78" value="" style="rounded=1;whiteSpace=wrap;html=1;fillColor=#f8cecc;strokeColor=#b85450;" parent="1" vertex="1">
          <mxGeometry x="565" y="1020" width="290" height="340" as="geometry" />
        </mxCell>
        <mxCell id="fFmPcU3MdrjsZ3k4qK_m-79" value="" style="rounded=1;whiteSpace=wrap;html=1;fillColor=#dae8fc;strokeColor=#6c8ebf;" parent="1" vertex="1">
          <mxGeometry x="575" y="1105" width="100" height="45" as="geometry" />
        </mxCell>
        <mxCell id="fFmPcU3MdrjsZ3k4qK_m-80" value="queue" style="rounded=1;whiteSpace=wrap;html=1;fillColor=#dae8fc;strokeColor=#6c8ebf;" parent="1" vertex="1">
          <mxGeometry x="715" y="1060" width="120" height="30" as="geometry" />
        </mxCell>
        <mxCell id="fFmPcU3MdrjsZ3k4qK_m-81" value="queue" style="rounded=1;whiteSpace=wrap;html=1;fillColor=#dae8fc;strokeColor=#6c8ebf;" parent="1" vertex="1">
          <mxGeometry x="715" y="1155" width="120" height="30" as="geometry" />
        </mxCell>
        <mxCell id="fFmPcU3MdrjsZ3k4qK_m-82" value="" style="endArrow=classic;html=1;rounded=0;entryX=0;entryY=0.75;entryDx=0;entryDy=0;exitX=1;exitY=0.5;exitDx=0;exitDy=0;" parent="1" source="fFmPcU3MdrjsZ3k4qK_m-79" edge="1">
          <mxGeometry width="50" height="50" relative="1" as="geometry">
            <mxPoint x="674" y="1105" as="sourcePoint" />
            <mxPoint x="714" y="1077.5" as="targetPoint" />
          </mxGeometry>
        </mxCell>
        <mxCell id="fFmPcU3MdrjsZ3k4qK_m-83" value="" style="endArrow=classic;html=1;rounded=0;entryX=0;entryY=0.5;entryDx=0;entryDy=0;exitX=1;exitY=0.5;exitDx=0;exitDy=0;" parent="1" source="fFmPcU3MdrjsZ3k4qK_m-79" target="fFmPcU3MdrjsZ3k4qK_m-81" edge="1">
          <mxGeometry width="50" height="50" relative="1" as="geometry">
            <mxPoint x="685" y="1138" as="sourcePoint" />
            <mxPoint x="724" y="1087.5" as="targetPoint" />
          </mxGeometry>
        </mxCell>
        <mxCell id="fFmPcU3MdrjsZ3k4qK_m-84" value="Exchange" style="text;html=1;align=center;verticalAlign=middle;whiteSpace=wrap;rounded=0;" parent="1" vertex="1">
          <mxGeometry x="595" y="1112.5" width="60" height="30" as="geometry" />
        </mxCell>
        <mxCell id="fFmPcU3MdrjsZ3k4qK_m-85" value="&lt;div class=&quot;lake-content&quot;&gt;&lt;span style=&quot;font-size: 16px;&quot; class=&quot;ne-text&quot;&gt;vhost&lt;/span&gt;&lt;/div&gt;" style="text;html=1;align=center;verticalAlign=middle;whiteSpace=wrap;rounded=0;" parent="1" vertex="1">
          <mxGeometry x="680" y="1020" width="60" height="30" as="geometry" />
        </mxCell>
        <mxCell id="fFmPcU3MdrjsZ3k4qK_m-86" value="queue" style="rounded=1;whiteSpace=wrap;html=1;fillColor=#dae8fc;strokeColor=#6c8ebf;" parent="1" vertex="1">
          <mxGeometry x="710" y="1212.5" width="120" height="30" as="geometry" />
        </mxCell>
        <mxCell id="fFmPcU3MdrjsZ3k4qK_m-87" value="queue" style="rounded=1;whiteSpace=wrap;html=1;fillColor=#dae8fc;strokeColor=#6c8ebf;" parent="1" vertex="1">
          <mxGeometry x="710" y="1307.5" width="120" height="30" as="geometry" />
        </mxCell>
        <mxCell id="fFmPcU3MdrjsZ3k4qK_m-88" value="" style="endArrow=classic;html=1;rounded=0;entryX=0;entryY=0.75;entryDx=0;entryDy=0;exitX=1;exitY=0.5;exitDx=0;exitDy=0;" parent="1" edge="1">
          <mxGeometry width="50" height="50" relative="1" as="geometry">
            <mxPoint x="670" y="1280.5" as="sourcePoint" />
            <mxPoint x="709" y="1230" as="targetPoint" />
          </mxGeometry>
        </mxCell>
        <mxCell id="fFmPcU3MdrjsZ3k4qK_m-89" value="" style="endArrow=classic;html=1;rounded=0;entryX=0;entryY=0.5;entryDx=0;entryDy=0;exitX=1;exitY=0.5;exitDx=0;exitDy=0;" parent="1" target="fFmPcU3MdrjsZ3k4qK_m-87" edge="1">
          <mxGeometry width="50" height="50" relative="1" as="geometry">
            <mxPoint x="670" y="1280.5" as="sourcePoint" />
            <mxPoint x="719" y="1240" as="targetPoint" />
          </mxGeometry>
        </mxCell>
        <mxCell id="fFmPcU3MdrjsZ3k4qK_m-90" value="" style="rounded=1;whiteSpace=wrap;html=1;fillColor=#dae8fc;strokeColor=#6c8ebf;" parent="1" vertex="1">
          <mxGeometry x="570" y="1255" width="100" height="45" as="geometry" />
        </mxCell>
        <mxCell id="fFmPcU3MdrjsZ3k4qK_m-91" value="Exchange" style="text;html=1;align=center;verticalAlign=middle;whiteSpace=wrap;rounded=0;" parent="1" vertex="1">
          <mxGeometry x="590" y="1265" width="60" height="30" as="geometry" />
        </mxCell>
        <mxCell id="fFmPcU3MdrjsZ3k4qK_m-93" value="&lt;b&gt;Broker&lt;/b&gt;" style="text;html=1;align=center;verticalAlign=middle;whiteSpace=wrap;rounded=0;" parent="1" vertex="1">
          <mxGeometry x="515" y="980" width="60" height="30" as="geometry" />
        </mxCell>
        <mxCell id="cPjp1gmhZrPlrb3KGz8X-2" value="&lt;div&gt;Procuder&lt;/div&gt;" style="ellipse;whiteSpace=wrap;html=1;aspect=fixed;fillColor=#fff2cc;strokeColor=#d6b656;" vertex="1" parent="1">
          <mxGeometry x="145" y="1600" width="80" height="80" as="geometry" />
        </mxCell>
        <mxCell id="cPjp1gmhZrPlrb3KGz8X-3" value="" style="endArrow=classic;html=1;rounded=0;" edge="1" parent="1">
          <mxGeometry width="50" height="50" relative="1" as="geometry">
            <mxPoint x="225" y="1639.5" as="sourcePoint" />
            <mxPoint x="315" y="1639.5" as="targetPoint" />
          </mxGeometry>
        </mxCell>
        <mxCell id="cPjp1gmhZrPlrb3KGz8X-5" value="&lt;div&gt;Exchange&lt;/div&gt;" style="ellipse;whiteSpace=wrap;html=1;aspect=fixed;fillColor=#f8cecc;strokeColor=#b85450;" vertex="1" parent="1">
          <mxGeometry x="315" y="1600" width="80" height="80" as="geometry" />
        </mxCell>
        <mxCell id="cPjp1gmhZrPlrb3KGz8X-6" value="normal-queue" style="rounded=1;whiteSpace=wrap;html=1;fillColor=#dae8fc;strokeColor=#6c8ebf;" vertex="1" parent="1">
          <mxGeometry x="460" y="1612.5" width="140" height="55" as="geometry" />
        </mxCell>
        <mxCell id="cPjp1gmhZrPlrb3KGz8X-12" value="" style="endArrow=classic;html=1;rounded=0;" edge="1" parent="1">
          <mxGeometry width="50" height="50" relative="1" as="geometry">
            <mxPoint x="395" y="1639.5" as="sourcePoint" />
            <mxPoint x="460" y="1640" as="targetPoint" />
          </mxGeometry>
        </mxCell>
        <mxCell id="cPjp1gmhZrPlrb3KGz8X-13" value="type=direct" style="text;html=1;align=center;verticalAlign=middle;whiteSpace=wrap;rounded=0;" vertex="1" parent="1">
          <mxGeometry x="315" y="1570" width="80" height="30" as="geometry" />
        </mxCell>
        <mxCell id="cPjp1gmhZrPlrb3KGz8X-14" value="normal_exchange" style="text;html=1;align=center;verticalAlign=middle;whiteSpace=wrap;rounded=0;" vertex="1" parent="1">
          <mxGeometry x="320" y="1680" width="80" height="30" as="geometry" />
        </mxCell>
        <mxCell id="cPjp1gmhZrPlrb3KGz8X-15" value="normalkey" style="text;html=1;align=center;verticalAlign=middle;whiteSpace=wrap;rounded=0;" vertex="1" parent="1">
          <mxGeometry x="395" y="1612.5" width="60" height="30" as="geometry" />
        </mxCell>
        <mxCell id="cPjp1gmhZrPlrb3KGz8X-16" value="" style="endArrow=classic;html=1;rounded=0;" edge="1" parent="1">
          <mxGeometry width="50" height="50" relative="1" as="geometry">
            <mxPoint x="600" y="1642.5" as="sourcePoint" />
            <mxPoint x="740" y="1643" as="targetPoint" />
          </mxGeometry>
        </mxCell>
        <mxCell id="cPjp1gmhZrPlrb3KGz8X-20" value="dead-queue" style="rounded=1;whiteSpace=wrap;html=1;fillColor=#dae8fc;strokeColor=#6c8ebf;" vertex="1" parent="1">
          <mxGeometry x="455" y="1830" width="140" height="55" as="geometry" />
        </mxCell>
        <mxCell id="cPjp1gmhZrPlrb3KGz8X-22" value="&lt;div&gt;Exchange&lt;/div&gt;" style="ellipse;whiteSpace=wrap;html=1;aspect=fixed;fillColor=#f8cecc;strokeColor=#b85450;" vertex="1" parent="1">
          <mxGeometry x="485" y="1710" width="80" height="80" as="geometry" />
        </mxCell>
        <mxCell id="cPjp1gmhZrPlrb3KGz8X-24" value="" style="endArrow=classic;html=1;rounded=0;" edge="1" parent="1" target="cPjp1gmhZrPlrb3KGz8X-22">
          <mxGeometry width="50" height="50" relative="1" as="geometry">
            <mxPoint x="530" y="1670" as="sourcePoint" />
            <mxPoint x="580" y="1620" as="targetPoint" />
          </mxGeometry>
        </mxCell>
        <mxCell id="cPjp1gmhZrPlrb3KGz8X-25" value="" style="endArrow=classic;html=1;rounded=0;exitX=0.5;exitY=1;exitDx=0;exitDy=0;entryX=0.5;entryY=0;entryDx=0;entryDy=0;" edge="1" parent="1" source="cPjp1gmhZrPlrb3KGz8X-22" target="cPjp1gmhZrPlrb3KGz8X-20">
          <mxGeometry width="50" height="50" relative="1" as="geometry">
            <mxPoint x="540" y="1680" as="sourcePoint" />
            <mxPoint x="537" y="1720" as="targetPoint" />
          </mxGeometry>
        </mxCell>
        <mxCell id="cPjp1gmhZrPlrb3KGz8X-26" value="deadkey" style="text;html=1;align=center;verticalAlign=middle;whiteSpace=wrap;rounded=0;" vertex="1" parent="1">
          <mxGeometry x="530" y="1790" width="60" height="30" as="geometry" />
        </mxCell>
        <mxCell id="cPjp1gmhZrPlrb3KGz8X-27" value="type=direct" style="text;html=1;align=center;verticalAlign=middle;whiteSpace=wrap;rounded=0;" vertex="1" parent="1">
          <mxGeometry x="405" y="1740" width="80" height="30" as="geometry" />
        </mxCell>
        <mxCell id="cPjp1gmhZrPlrb3KGz8X-28" value="dead_exchange" style="text;html=1;align=center;verticalAlign=middle;whiteSpace=wrap;rounded=0;" vertex="1" parent="1">
          <mxGeometry x="575" y="1735" width="80" height="30" as="geometry" />
        </mxCell>
        <mxCell id="cPjp1gmhZrPlrb3KGz8X-29" value="" style="endArrow=classic;html=1;rounded=0;exitX=1;exitY=0.5;exitDx=0;exitDy=0;entryX=0;entryY=0.5;entryDx=0;entryDy=0;" edge="1" parent="1" source="cPjp1gmhZrPlrb3KGz8X-20" target="cPjp1gmhZrPlrb3KGz8X-30">
          <mxGeometry width="50" height="50" relative="1" as="geometry">
            <mxPoint x="610" y="1652.5" as="sourcePoint" />
            <mxPoint x="740" y="1850" as="targetPoint" />
          </mxGeometry>
        </mxCell>
        <mxCell id="cPjp1gmhZrPlrb3KGz8X-30" value="&lt;div style=&quot;line-height: 100%;&quot;&gt;&lt;pre style=&quot;font-family: &amp;quot;JetBrains Mono&amp;quot;, monospace; line-height: 100%;&quot;&gt;&lt;font style=&quot;font-size: 11px;&quot;&gt;DeadConsumer&lt;/font&gt;&lt;/pre&gt;&lt;/div&gt;" style="ellipse;whiteSpace=wrap;html=1;aspect=fixed;fillColor=#fff2cc;strokeColor=#d6b656;labelBackgroundColor=none;" vertex="1" parent="1">
          <mxGeometry x="745" y="1815" width="82.5" height="82.5" as="geometry" />
        </mxCell>
        <mxCell id="cPjp1gmhZrPlrb3KGz8X-31" value="&lt;div style=&quot;line-height: 100%;&quot;&gt;&lt;pre style=&quot;font-family: &amp;quot;JetBrains Mono&amp;quot;, monospace; line-height: 100%;&quot;&gt;&lt;font style=&quot;font-size: 11px;&quot;&gt;NormalConsumer&lt;/font&gt;&lt;/pre&gt;&lt;/div&gt;" style="ellipse;whiteSpace=wrap;html=1;aspect=fixed;fillColor=#fff2cc;strokeColor=#d6b656;labelBackgroundColor=none;" vertex="1" parent="1">
          <mxGeometry x="742.5" y="1600" width="90" height="90" as="geometry" />
        </mxCell>
      </root>
    </mxGraphModel>
  </diagram>
</mxfile>
